<?xml version="1.0" standalone="no"?>
<!DOCTYPE svg PUBLIC "-//W3C//DTD SVG 20010904//EN"
 "http://www.w3.org/TR/2001/REC-SVG-20010904/DTD/svg10.dtd">
<svg version="1.0" xmlns="http://www.w3.org/2000/svg"
 width="260.000000pt" height="260.000000pt" viewBox="0 0 260.000000 260.000000"
 preserveAspectRatio="xMidYMid meet">
<metadata>
Created by potrace 1.11, written by Peter Selinger 2001-2013
</metadata>
<g transform="translate(0.000000,260.000000) scale(0.100000,-0.100000)"
fill="#000000" stroke="none">
<path d="M1430 2545 c0 -4 13 -20 29 -36 26 -25 28 -29 14 -41 -11 -9 -17 -9
-20 -2 -5 14 -86 2 -107 -16 -9 -7 -16 -25 -16 -41 0 -23 7 -31 38 -46 20 -9
40 -21 43 -26 3 -5 9 -8 13 -8 23 3 29 0 19 -10 -17 -17 -374 -21 -407 -4 -15
8 -29 14 -32 14 -3 -1 -8 2 -12 5 -3 3 0 6 7 6 14 0 121 48 121 54 0 3 -15 0
-32 -6 -18 -5 -44 -12 -58 -14 -24 -4 -24 -4 3 9 15 7 24 17 20 21 -4 4 0 4
10 0 10 -3 17 -1 17 5 0 6 6 11 13 11 22 1 52 29 41 40 -10 10 -90 -11 -129
-35 -16 -10 -104 -43 -135 -50 -24 -6 -140 -69 -140 -76 0 -5 -8 -9 -18 -9
-10 0 -22 -3 -26 -7 -4 -5 -11 -8 -14 -8 -4 0 -27 -13 -52 -27 -63 -38 -129
-65 -170 -72 -46 -7 -71 -40 -66 -89 6 -54 19 -66 69 -61 23 2 52 4 65 4 13 0
32 5 43 10 30 17 119 14 148 -4 7 -5 16 -5 20 0 9 13 34 17 26 4 -3 -5 1 -10
10 -10 10 0 13 5 9 13 -5 8 -2 8 9 -2 14 -11 17 -11 17 0 0 11 2 11 10 -1 5
-8 10 -10 10 -5 0 6 11 11 25 12 14 1 36 4 49 5 26 2 25 28 -2 28 -8 0 -13 3
-9 6 10 11 46 -7 49 -24 3 -13 5 -12 10 6 4 14 2 20 -4 16 -6 -4 -9 -1 -6 7 7
22 38 24 38 2 0 -15 2 -15 9 -4 9 14 21 16 196 24 55 3 90 -13 98 -43 6 -24
-6 -25 -38 -4 -14 9 -25 14 -25 11 0 -3 -15 0 -34 8 -33 14 -35 13 -41 -5 -4
-11 -10 -20 -15 -20 -4 0 -10 -11 -12 -25 -6 -27 37 -98 62 -103 29 -7 28 -26
-3 -57 -34 -34 -97 -71 -97 -58 -1 5 -8 -1 -18 -12 -29 -34 -119 -84 -143 -80
-12 3 -33 14 -46 26 -12 13 -23 21 -24 18 0 -2 -2 -13 -4 -23 -2 -10 3 -28 10
-40 10 -14 13 -39 10 -76 -3 -30 -8 -89 -12 -130 -3 -41 -6 -108 -6 -147 0
-51 -3 -71 -11 -66 -8 4 -7 2 1 -7 7 -8 8 -22 2 -44 -19 -65 -39 -223 -41
-331 -2 -109 55 -271 117 -331 39 -38 69 -52 165 -78 36 -10 70 -21 75 -25 6
-4 42 -21 80 -36 39 -16 75 -33 82 -37 13 -10 63 -21 63 -14 0 3 -12 22 -26
43 -37 54 -66 123 -60 139 3 8 0 14 -6 14 -7 0 -6 6 3 16 10 13 10 17 -2 25
-8 5 -9 9 -3 9 7 0 15 12 19 28 9 35 33 62 57 62 10 0 18 1 18 3 0 1 -4 16 -9
34 -10 34 5 68 31 68 7 1 11 7 9 15 -11 44 3 110 23 110 19 0 26 21 14 44 -18
34 4 196 33 246 60 105 73 111 107 53 11 -21 34 -52 49 -69 61 -68 64 -75 65
-127 2 -111 -12 -354 -21 -384 -5 -18 -8 -33 -5 -33 3 0 -1 -10 -8 -22 -7 -13
-11 -27 -10 -32 2 -4 -2 -14 -8 -20 -5 -7 -7 -16 -3 -19 3 -4 -1 -9 -10 -13
-9 -3 -13 -12 -10 -20 3 -8 0 -14 -5 -14 -6 0 -13 -9 -17 -19 -7 -24 -168
-191 -183 -191 -7 0 -12 -4 -12 -9 0 -10 -116 -71 -135 -71 -7 0 -30 -8 -51
-17 -22 -9 -42 -18 -46 -19 -5 -1 -9 -3 -10 -4 -2 -1 -14 -4 -28 -5 -14 -2
-40 -6 -57 -9 -73 -13 -92 -13 -143 -4 -85 15 -168 61 -241 131 -74 71 -164
184 -174 219 -6 20 -40 92 -124 268 -16 34 -16 37 1 55 10 10 18 21 18 24 0 3
-17 29 -38 56 -20 28 -43 63 -50 79 -17 38 -23 29 -30 -41 -11 -105 -8 -148 8
-149 8 -1 20 -2 26 -3 6 0 11 -7 12 -13 0 -7 21 -71 46 -143 65 -188 132 -319
216 -418 58 -70 81 -89 133 -113 34 -15 67 -29 72 -30 6 -2 20 -5 33 -8 12 -3
28 -8 34 -12 7 -5 19 -9 28 -10 8 -2 33 -6 55 -10 43 -8 161 -10 210 -3 17 2
36 11 43 19 8 8 11 9 7 2 -7 -14 6 -16 20 -3 8 6 88 32 115 36 10 2 110 53
147 76 81 49 200 156 249 224 16 22 43 54 60 72 32 34 36 41 85 148 60 132 98
225 92 225 -3 0 1 8 10 18 9 9 19 33 22 51 3 19 8 37 10 41 4 6 12 41 20 85 2
11 8 35 14 53 5 17 8 32 5 32 -3 0 0 9 6 21 10 18 15 34 24 84 1 6 4 15 8 20
3 6 6 22 6 37 0 15 6 34 14 42 23 22 43 3 40 -38 -2 -27 1 -36 13 -36 15 0 16
-3 19 -50 1 -14 8 -38 15 -55 7 -16 14 -56 16 -88 2 -51 14 -92 16 -56 1 26 9
74 20 120 6 26 12 62 14 80 2 19 4 34 4 34 7 0 14 216 14 410 0 218 -2 247
-22 315 -12 41 -23 80 -24 85 -7 26 -59 129 -79 157 -38 51 -200 208 -210 202
-4 -3 -8 -1 -8 4 0 11 -91 47 -155 61 -114 26 -149 31 -225 36 -38 2 -84 7
-104 10 -20 4 -36 4 -36 0z m-570 -485 c-19 -12 -30 -12 -30 -1 0 10 31 20 40
14 2 -2 -2 -8 -10 -13z"/>
</g>
</svg>
